<svg id="visual" viewBox="0 0 1000 300" width="1000" height="300" xmlns="http://www.w3.org/2000/svg" xmlns:xlink="http://www.w3.org/1999/xlink" version="1.1"><rect x="0" y="0" width="1000" height="300" fill="#FFFFFF"></rect><defs><linearGradient id="grad1_0" x1="70%" y1="100%" x2="100%" y2="0%"><stop offset="-16.66666666666667%" stop-color="#6f6b6b" stop-opacity="1"></stop><stop offset="116.66666666666666%" stop-color="#6f6b6b" stop-opacity="1"></stop></linearGradient></defs><defs><linearGradient id="grad1_1" x1="70%" y1="100%" x2="100%" y2="0%"><stop offset="-16.66666666666667%" stop-color="#6f6b6b" stop-opacity="1"></stop><stop offset="116.66666666666666%" stop-color="#827f7f" stop-opacity="1"></stop></linearGradient></defs><defs><linearGradient id="grad1_2" x1="70%" y1="100%" x2="100%" y2="0%"><stop offset="-16.66666666666667%" stop-color="#969393" stop-opacity="1"></stop><stop offset="116.66666666666666%" stop-color="#827f7f" stop-opacity="1"></stop></linearGradient></defs><defs><linearGradient id="grad1_3" x1="70%" y1="100%" x2="100%" y2="0%"><stop offset="-16.66666666666667%" stop-color="#969393" stop-opacity="1"></stop><stop offset="116.66666666666666%" stop-color="#aaa8a8" stop-opacity="1"></stop></linearGradient></defs><defs><linearGradient id="grad1_4" x1="70%" y1="100%" x2="100%" y2="0%"><stop offset="-16.66666666666667%" stop-color="#bfbdbd" stop-opacity="1"></stop><stop offset="116.66666666666666%" stop-color="#aaa8a8" stop-opacity="1"></stop></linearGradient></defs><defs><linearGradient id="grad1_5" x1="70%" y1="100%" x2="100%" y2="0%"><stop offset="-16.66666666666667%" stop-color="#bfbdbd" stop-opacity="1"></stop><stop offset="116.66666666666666%" stop-color="#d4d2d2" stop-opacity="1"></stop></linearGradient></defs><defs><linearGradient id="grad1_6" x1="70%" y1="100%" x2="100%" y2="0%"><stop offset="-16.66666666666667%" stop-color="#e9e9e9" stop-opacity="1"></stop><stop offset="116.66666666666666%" stop-color="#d4d2d2" stop-opacity="1"></stop></linearGradient></defs><defs><linearGradient id="grad1_7" x1="70%" y1="100%" x2="100%" y2="0%"><stop offset="-16.66666666666667%" stop-color="#e9e9e9" stop-opacity="1"></stop><stop offset="116.66666666666666%" stop-color="#ffffff" stop-opacity="1"></stop></linearGradient></defs><defs><linearGradient id="grad2_0" x1="0%" y1="100%" x2="30%" y2="0%"><stop offset="-16.66666666666667%" stop-color="#6f6b6b" stop-opacity="1"></stop><stop offset="116.66666666666666%" stop-color="#6f6b6b" stop-opacity="1"></stop></linearGradient></defs><defs><linearGradient id="grad2_1" x1="0%" y1="100%" x2="30%" y2="0%"><stop offset="-16.66666666666667%" stop-color="#827f7f" stop-opacity="1"></stop><stop offset="116.66666666666666%" stop-color="#6f6b6b" stop-opacity="1"></stop></linearGradient></defs><defs><linearGradient id="grad2_2" x1="0%" y1="100%" x2="30%" y2="0%"><stop offset="-16.66666666666667%" stop-color="#827f7f" stop-opacity="1"></stop><stop offset="116.66666666666666%" stop-color="#969393" stop-opacity="1"></stop></linearGradient></defs><defs><linearGradient id="grad2_3" x1="0%" y1="100%" x2="30%" y2="0%"><stop offset="-16.66666666666667%" stop-color="#aaa8a8" stop-opacity="1"></stop><stop offset="116.66666666666666%" stop-color="#969393" stop-opacity="1"></stop></linearGradient></defs><defs><linearGradient id="grad2_4" x1="0%" y1="100%" x2="30%" y2="0%"><stop offset="-16.66666666666667%" stop-color="#aaa8a8" stop-opacity="1"></stop><stop offset="116.66666666666666%" stop-color="#bfbdbd" stop-opacity="1"></stop></linearGradient></defs><defs><linearGradient id="grad2_5" x1="0%" y1="100%" x2="30%" y2="0%"><stop offset="-16.66666666666667%" stop-color="#d4d2d2" stop-opacity="1"></stop><stop offset="116.66666666666666%" stop-color="#bfbdbd" stop-opacity="1"></stop></linearGradient></defs><defs><linearGradient id="grad2_6" x1="0%" y1="100%" x2="30%" y2="0%"><stop offset="-16.66666666666667%" stop-color="#d4d2d2" stop-opacity="1"></stop><stop offset="116.66666666666666%" stop-color="#e9e9e9" stop-opacity="1"></stop></linearGradient></defs><defs><linearGradient id="grad2_7" x1="0%" y1="100%" x2="30%" y2="0%"><stop offset="-16.66666666666667%" stop-color="#ffffff" stop-opacity="1"></stop><stop offset="116.66666666666666%" stop-color="#e9e9e9" stop-opacity="1"></stop></linearGradient></defs><g transform="translate(1000, 300)"><path d="M-300 0C-300.9 -18 -301.9 -36.1 -295.4 -52.1C-289 -68.1 -275.2 -82.2 -266.9 -97.1C-258.5 -112.1 -255.6 -128 -251.1 -145C-246.7 -162 -240.5 -180 -226.7 -190.3C-213 -200.5 -191.5 -203 -175.5 -209.1C-159.5 -215.3 -149 -225.1 -138 -239C-127 -253 -115.6 -271.1 -100.2 -275.3C-84.8 -279.6 -65.3 -270 -47.9 -271.8C-30.6 -273.6 -15.3 -286.8 0 -300L0 0Z" fill="#f4f4f4"></path><path d="M-262.5 0C-263.3 -15.8 -264.1 -31.6 -258.5 -45.6C-252.9 -59.6 -240.8 -71.9 -233.5 -85C-226.2 -98.1 -223.7 -112 -219.8 -126.9C-215.8 -141.7 -210.5 -157.5 -198.4 -166.5C-186.3 -175.5 -167.5 -177.6 -153.5 -183C-139.5 -188.4 -130.3 -196.9 -120.8 -209.1C-111.2 -221.4 -101.2 -237.2 -87.7 -240.9C-74.2 -244.6 -57.1 -236.3 -41.9 -237.8C-26.7 -239.4 -13.4 -251 0 -262.5L0 0Z" fill="#dedddd"></path><path d="M-225 0C-225.7 -13.5 -226.4 -27 -221.6 -39.1C-216.8 -51.1 -206.4 -61.6 -200.2 -72.9C-193.9 -84.1 -191.7 -96 -188.4 -108.8C-185 -121.5 -180.4 -135 -170.1 -142.7C-159.7 -150.4 -143.6 -152.2 -131.6 -156.8C-119.6 -161.5 -111.7 -168.8 -103.5 -179.3C-95.3 -189.7 -86.7 -203.3 -75.2 -206.5C-63.6 -209.7 -49 -202.5 -35.9 -203.9C-22.9 -205.2 -11.5 -215.1 0 -225L0 0Z" fill="#c9c8c8"></path><path d="M-187.5 0C-188.1 -11.3 -188.7 -22.5 -184.7 -32.6C-180.6 -42.6 -172 -51.3 -166.8 -60.7C-161.6 -70.1 -159.8 -80 -157 -90.6C-154.2 -101.2 -150.3 -112.5 -141.7 -118.9C-133.1 -125.3 -119.7 -126.9 -109.7 -130.7C-99.7 -134.5 -93.1 -140.7 -86.3 -149.4C-79.4 -158.1 -72.3 -169.4 -62.6 -172.1C-53 -174.7 -40.8 -168.8 -30 -169.9C-19.1 -171 -9.5 -179.3 0 -187.5L0 0Z" fill="#b4b2b2"></path><path d="M-150 0C-150.5 -9 -150.9 -18 -147.7 -26C-144.5 -34.1 -137.6 -41.1 -133.4 -48.6C-129.3 -56.1 -127.8 -64 -125.6 -72.5C-123.3 -81 -120.3 -90 -113.4 -95.1C-106.5 -100.3 -95.7 -101.5 -87.7 -104.6C-79.7 -107.6 -74.5 -112.5 -69 -119.5C-63.5 -126.5 -57.8 -135.5 -50.1 -137.7C-42.4 -139.8 -32.7 -135 -24 -135.9C-15.3 -136.8 -7.6 -143.4 0 -150L0 0Z" fill="#a09d9d"></path><path d="M-112.5 0C-112.9 -6.8 -113.2 -13.5 -110.8 -19.5C-108.4 -25.5 -103.2 -30.8 -100.1 -36.4C-96.9 -42 -95.9 -48 -94.2 -54.4C-92.5 -60.7 -90.2 -67.5 -85 -71.3C-79.9 -75.2 -71.8 -76.1 -65.8 -78.4C-59.8 -80.7 -55.9 -84.4 -51.8 -89.6C-47.6 -94.9 -43.4 -101.7 -37.6 -103.2C-31.8 -104.8 -24.5 -101.3 -18 -101.9C-11.5 -102.6 -5.7 -107.6 0 -112.5L0 0Z" fill="#8c8989"></path><path d="M-75 0C-75.2 -4.5 -75.5 -9 -73.9 -13C-72.3 -17 -68.8 -20.5 -66.7 -24.3C-64.6 -28 -63.9 -32 -62.8 -36.3C-61.7 -40.5 -60.1 -45 -56.7 -47.6C-53.2 -50.1 -47.9 -50.7 -43.9 -52.3C-39.9 -53.8 -37.2 -56.3 -34.5 -59.8C-31.8 -63.2 -28.9 -67.8 -25.1 -68.8C-21.2 -69.9 -16.3 -67.5 -12 -68C-7.6 -68.4 -3.8 -71.7 0 -75L0 0Z" fill="#797575"></path><path d="M-37.5 0C-37.6 -2.3 -37.7 -4.5 -36.9 -6.5C-36.1 -8.5 -34.4 -10.3 -33.4 -12.1C-32.3 -14 -32 -16 -31.4 -18.1C-30.8 -20.2 -30.1 -22.5 -28.3 -23.8C-26.6 -25.1 -23.9 -25.4 -21.9 -26.1C-19.9 -26.9 -18.6 -28.1 -17.3 -29.9C-15.9 -31.6 -14.5 -33.9 -12.5 -34.4C-10.6 -34.9 -8.2 -33.8 -6 -34C-3.8 -34.2 -1.9 -35.9 0 -37.5L0 0Z" fill="#6f6b6b"></path></g><g transform="translate(0, 0)"><path d="M300 0C298.9 17.7 297.7 35.4 292.5 51.6C287.3 67.7 277.9 82.4 273.5 99.5C269 116.7 269.3 136.4 259.8 150C250.3 163.6 231.1 170.9 218.3 183.2C205.6 195.5 199.4 212.6 187.1 222.9C174.7 233.2 156.2 236.8 140 242.5C123.8 248.2 109.8 256.1 94.7 260.3C79.7 264.5 63.7 264.8 47.8 270.8C31.8 276.8 15.9 288.4 0 300L0 0Z" fill="#f4f4f4"></path><path d="M262.5 0C261.5 15.5 260.5 31 255.9 45.1C251.4 59.3 243.2 72.1 239.3 87.1C235.3 102.1 235.6 119.4 227.3 131.2C219 143.1 202.2 149.6 191 160.3C179.9 171 174.5 186 163.7 195.1C152.9 204.1 136.7 207.2 122.5 212.2C108.3 217.2 96 224.1 82.9 227.8C69.8 231.4 55.7 231.7 41.8 237C27.8 242.2 13.9 252.4 0 262.5L0 0Z" fill="#dedddd"></path><path d="M225 0C224.1 13.3 223.3 26.6 219.4 38.7C215.4 50.8 208.5 61.8 205.1 74.6C201.7 87.5 202 102.3 194.9 112.5C187.8 122.7 173.3 128.2 163.7 137.4C154.2 146.6 149.5 159.4 140.3 167.2C131 174.9 117.2 177.6 105 181.9C92.8 186.2 82.3 192.1 71.1 195.2C59.8 198.3 47.8 198.6 35.8 203.1C23.8 207.6 11.9 216.3 0 225L0 0Z" fill="#c9c8c8"></path><path d="M187.5 0C186.8 11.1 186.1 22.1 182.8 32.2C179.5 42.3 173.7 51.5 170.9 62.2C168.1 72.9 168.3 85.3 162.4 93.7C156.5 102.2 144.4 106.8 136.5 114.5C128.5 122.2 124.6 132.9 116.9 139.3C109.2 145.8 97.7 148 87.5 151.6C77.3 155.1 68.6 160.1 59.2 162.7C49.8 165.3 39.8 165.5 29.8 169.3C19.9 173 9.9 180.3 0 187.5L0 0Z" fill="#b4b2b2"></path><path d="M150 0C149.4 8.9 148.9 17.7 146.2 25.8C143.6 33.9 139 41.2 136.7 49.8C134.5 58.4 134.6 68.2 129.9 75C125.2 81.8 115.5 85.5 109.2 91.6C102.8 97.7 99.7 106.3 93.5 111.5C87.4 116.6 78.1 118.4 70 121.2C61.9 124.1 54.9 128.1 47.4 130.1C39.9 132.2 31.9 132.4 23.9 135.4C15.9 138.4 7.9 144.2 0 150L0 0Z" fill="#a09d9d"></path><path d="M112.5 0C112.1 6.6 111.6 13.3 109.7 19.3C107.7 25.4 104.2 30.9 102.5 37.3C100.9 43.8 101 51.2 97.4 56.2C93.9 61.3 86.6 64.1 81.9 68.7C77.1 73.3 74.8 79.7 70.1 83.6C65.5 87.5 58.6 88.8 52.5 90.9C46.4 93.1 41.2 96.1 35.5 97.6C29.9 99.2 23.9 99.3 17.9 101.6C11.9 103.8 6 108.2 0 112.5L0 0Z" fill="#8c8989"></path><path d="M75 0C74.7 4.4 74.4 8.9 73.1 12.9C71.8 16.9 69.5 20.6 68.4 24.9C67.2 29.2 67.3 34.1 65 37.5C62.6 40.9 57.8 42.7 54.6 45.8C51.4 48.9 49.8 53.1 46.8 55.7C43.7 58.3 39.1 59.2 35 60.6C30.9 62.1 27.4 64 23.7 65.1C19.9 66.1 15.9 66.2 11.9 67.7C7.9 69.2 4 72.1 0 75L0 0Z" fill="#797575"></path><path d="M37.5 0C37.4 2.2 37.2 4.4 36.6 6.4C35.9 8.5 34.7 10.3 34.2 12.4C33.6 14.6 33.7 17.1 32.5 18.7C31.3 20.4 28.9 21.4 27.3 22.9C25.7 24.4 24.9 26.6 23.4 27.9C21.8 29.2 19.5 29.6 17.5 30.3C15.5 31 13.7 32 11.8 32.5C10 33.1 8 33.1 6 33.9C4 34.6 2 36.1 0 37.5L0 0Z" fill="#6f6b6b"></path></g></svg>